<svg width="77" height="82" viewBox="0 0 77 82" fill="none" xmlns="http://www.w3.org/2000/svg">
<path d="M0.821585 68.9483V9.78778C0.821585 6.13201 3.76427 3.16842 7.39426 3.16842H45.598C49.2279 3.16842 52.1706 6.13201 52.1706 9.78778V68.9483C52.1706 72.6041 49.2279 75.5677 45.598 75.5677H7.39426C3.76427 75.5677 0.821585 72.6041 0.821585 68.9483Z" fill="white"/>
<path fill-rule="evenodd" clip-rule="evenodd" d="M7.39426 3.99584C4.21802 3.99584 1.64317 6.58898 1.64317 9.78778V68.9483C1.64317 72.1471 4.21802 74.7402 7.39426 74.7402H45.598C48.7742 74.7402 51.3491 72.1471 51.3491 68.9483V9.78778C51.3491 6.58898 48.7742 3.99584 45.598 3.99584H7.39426ZM0 9.78778C0 5.67503 3.31053 2.341 7.39426 2.341H45.598C49.6817 2.341 52.9922 5.67503 52.9922 9.78778V68.9483C52.9922 73.061 49.6817 76.3951 45.598 76.3951H7.39426C3.31052 76.3951 0 73.061 0 68.9483V9.78778Z" fill="black"/>
<path d="M10.8655 20.4855C12.3842 20.4855 13.1436 19.3591 13.1436 17.1063V10.7621C13.1436 10.4032 13.0695 10.1795 12.9215 10.0912C12.6529 9.93659 12.1594 9.85929 11.4412 9.85929V8.94824H16.3755V9.85929C15.8547 9.85929 15.5148 9.91174 15.3558 10.0167C15.1968 10.116 15.0954 10.2237 15.0515 10.3397C15.0076 10.4556 14.9857 10.5964 14.9857 10.7621L14.9939 17.1146C14.9939 19.2956 14.2346 20.6759 12.7159 21.2557C12.2225 21.4434 11.677 21.5373 11.0794 21.5373C9.94995 21.5373 9.02887 21.2447 8.31614 20.6594C7.60889 20.0741 7.25526 19.3535 7.25526 18.4977C7.25526 18.0394 7.3841 17.6667 7.64178 17.3796C7.89946 17.087 8.21745 16.9406 8.59575 16.9406C8.97405 16.9406 9.28107 17.0649 9.51682 17.3133C9.75258 17.5618 9.87045 17.8462 9.87045 18.1664C9.87045 18.4811 9.79369 18.7489 9.64018 18.9698C9.48667 19.1907 9.2893 19.3508 9.04806 19.4502C9.17965 19.7704 9.41266 20.0244 9.74709 20.2121C10.087 20.3943 10.4598 20.4855 10.8655 20.4855Z" fill="#FF0000"/>
<path fill-rule="evenodd" clip-rule="evenodd" d="M19.9694 26.6903C15.088 27.8849 13.233 34.7404 16.25 40.4371C17.1802 42.1938 18.1733 43.432 21.268 46.6938C23.6024 49.1541 24.3793 50.0313 25.3215 51.2691C26.4148 52.7053 26.6562 52.6753 28.0429 50.9286C29.0141 49.7054 29.8297 48.7912 31.6857 46.8446C35.3676 42.9834 36.5945 41.3333 37.4708 39.064C39.9146 32.736 36.7292 26.1734 31.4077 26.5718C30.0174 26.6758 28.4205 27.6978 26.9714 29.4113L26.5438 29.9168L26.1646 29.4611C24.17 27.0645 22.1438 26.1583 19.9694 26.6903Z" fill="#FF0000"/>
<path d="M11.1494 62.8801L26.3532 5.73541C27.2928 2.20421 30.8968 0.108634 34.4031 1.05482L71.305 11.0129C74.8113 11.9591 76.8921 15.5887 75.9526 19.1199L60.7487 76.2646C59.8092 79.7958 56.2052 81.8914 52.6989 80.9452L15.7969 70.9871C12.2906 70.0409 10.2099 66.4113 11.1494 62.8801Z" fill="white"/>
<path fill-rule="evenodd" clip-rule="evenodd" d="M34.1905 1.85404C31.1225 1.02613 27.9689 2.85976 27.1468 5.94956L11.943 63.0942C11.1209 66.184 12.9416 69.36 16.0096 70.1879L52.9115 80.146C55.9795 80.9739 59.1331 79.1402 59.9551 76.0504L75.159 18.9058C75.9811 15.816 74.1604 12.64 71.0924 11.8121L34.1905 1.85404ZM25.5597 5.52126C26.6166 1.54865 30.6712 -0.808865 34.6157 0.255591L71.5177 10.2137C75.4623 11.2781 77.8032 15.3615 76.7462 19.3341L61.5423 76.4787C60.4854 80.4513 56.4308 82.8089 52.4862 81.7444L15.5843 71.7863C11.6397 70.7219 9.29882 66.6385 10.3558 62.6659L25.5597 5.52126Z" fill="black"/>
<path d="M29.0781 17.5201C29.5177 17.6387 29.8664 17.6613 30.1243 17.588C30.3889 17.5108 30.6233 17.3339 30.8274 17.0575L37.8436 7.96694L39.2019 8.3335L40.3995 19.6405C40.4517 20.0204 40.5488 20.2953 40.6909 20.4652C40.8345 20.6296 41.1604 20.7805 41.6688 20.9177L41.4347 21.7977L36.5335 20.4751L36.7676 19.5951C37.4666 19.7837 37.8925 19.8472 38.0451 19.7855C38.2031 19.7252 38.2916 19.6376 38.3108 19.5228C38.3353 19.4093 38.3378 19.2614 38.3183 19.0789L38.1376 16.878L33.5223 15.6325L32.1699 17.4197C31.9629 17.7069 31.9397 17.9436 32.1002 18.1298C32.262 18.3106 32.7031 18.4983 33.4233 18.6926L33.1892 19.5726L28.844 18.4001L29.0781 17.5201ZM38.0619 15.9144L37.5982 10.233L34.1139 14.849L38.0619 15.9144Z" fill="black"/>
<path fill-rule="evenodd" clip-rule="evenodd" d="M46.542 28.6008C46.423 28.6032 45.9409 28.8485 44.9533 29.4091C43.3627 30.3122 42.8038 30.5975 40.6851 31.5886C37.1759 33.2301 35.7879 34.0366 34.4794 35.1941C30.6871 38.5487 30.6866 44.004 34.478 46.4488C35.2093 46.9204 35.3706 46.988 36.4583 47.2804L37.4736 47.5533L37.9753 47.5174C38.66 47.4684 39.4823 47.3082 40.1215 47.0992C40.7768 46.8848 40.7502 46.8735 40.5183 47.2669C39.7554 48.5611 38.1571 50.7143 37.2771 51.6335C37.1239 51.7935 36.8856 52.042 36.7473 52.1858C36.4245 52.5214 36.4053 52.5071 37.3268 52.6193C39.0519 52.8295 41.6163 53.5192 43.2096 54.2019C44.1744 54.6153 44.1186 54.6485 43.9034 53.7876C43.6735 52.8678 43.5098 51.926 43.3886 50.8254C43.2759 49.8013 43.1401 47.6598 43.1861 47.6329C43.204 47.6225 43.3904 47.8011 43.6005 48.0295C44.1597 48.6378 44.6306 49.0536 45.192 49.4348L45.6895 49.7726L46.7049 50.0444C50.7482 51.1269 54.2917 48.6299 54.8032 44.3383C55.1466 41.4576 54.2905 39.3062 50.8284 34.3511C49.4763 32.4158 48.969 31.6357 48.1423 30.2209C47.2433 28.682 47.1511 28.5888 46.542 28.6008Z" fill="black"/>
</svg>
