<?xml version="1.0" standalone="no"?>
<!DOCTYPE svg PUBLIC "-//W3C//DTD SVG 20010904//EN"
 "http://www.w3.org/TR/2001/REC-SVG-20010904/DTD/svg10.dtd">
<svg version="1.0" xmlns="http://www.w3.org/2000/svg"
 width="806.000000pt" height="806.000000pt" viewBox="0 0 806.000000 806.000000"
 preserveAspectRatio="xMidYMid meet">
<metadata>
Created by potrace 1.14, written by Peter Selinger 2001-2017
</metadata>
<g transform="translate(0.000000,806.000000) scale(0.100000,-0.100000)"
fill="#000000" stroke="none">
<path d="M3261 7980 c-97 -23 -225 -89 -293 -150 l-55 -49 -1029 -3 -1029 -4
-73 -22 c-256 -78 -443 -266 -511 -512 l-21 -75 0 -2975 0 -2975 21 -75 c69
-249 262 -441 518 -513 76 -22 81 -22 1386 -27 l1310 -5 205 -58 c113 -31 230
-63 260 -72 77 -21 326 -88 445 -120 55 -14 260 -69 455 -121 195 -53 407
-109 470 -126 141 -38 294 -43 400 -15 141 38 282 124 372 227 100 115 132
192 233 575 75 282 173 650 239 895 25 91 54 201 66 245 21 78 94 352 244 913
41 152 88 327 104 387 33 122 299 1118 338 1260 13 50 42 155 63 235 22 80 51
189 65 242 34 129 207 774 258 963 64 237 64 395 -1 555 -72 175 -212 323
-377 396 -31 13 -216 67 -412 120 -196 52 -391 104 -432 116 -41 11 -97 26
-125 33 -592 158 -1078 288 -1105 297 -19 6 -58 32 -87 57 -66 59 -187 123
-283 151 -64 19 -108 23 -300 27 l-225 5 -245 65 c-558 150 -573 153 -678 152
-57 0 -127 -8 -171 -19z m565 -235 c175 -46 344 -91 374 -100 62 -17 345 -93
670 -180 443 -118 946 -253 1290 -346 118 -31 334 -89 480 -128 146 -39 335
-90 420 -112 198 -54 276 -92 360 -178 104 -106 160 -241 160 -387 0 -83 -4
-101 -245 -994 -29 -107 -75 -280 -103 -385 -28 -104 -83 -309 -122 -455 -39
-146 -94 -350 -122 -455 -28 -104 -74 -278 -103 -385 -29 -107 -94 -350 -145
-540 -50 -190 -109 -408 -130 -485 -65 -241 -248 -924 -325 -1215 -56 -210
-139 -521 -191 -710 -68 -252 -221 -402 -455 -446 -109 -21 -152 -14 -504 81
-154 41 -372 100 -485 130 -113 30 -314 84 -447 120 -134 36 -352 94 -485 130
-456 122 -663 178 -858 230 -107 29 -301 81 -430 115 -753 199 -764 203 -874
321 -110 117 -166 268 -153 418 3 37 23 134 45 216 22 83 84 311 136 508 53
197 108 402 122 455 14 53 43 160 64 237 20 77 60 226 88 330 28 105 83 309
122 455 39 146 94 351 122 455 28 105 74 278 103 385 29 107 88 326 130 485
43 160 101 378 130 485 112 418 270 1005 340 1270 126 475 130 485 240 595
107 107 238 163 386 164 64 1 123 -11 395 -84z m-1046 -147 c0 -2 -9 -27 -21
-57 -17 -46 -98 -341 -295 -1081 -18 -69 -76 -285 -129 -480 -52 -195 -107
-401 -121 -457 l-26 -101 -57 -21 c-148 -54 -273 -173 -350 -334 -75 -158 -86
-210 -86 -422 0 -137 4 -197 17 -252 21 -86 62 -201 93 -264 l23 -45 -38 -140
c-20 -76 -63 -233 -94 -349 -137 -511 -177 -663 -231 -865 -92 -343 -163 -606
-197 -730 -30 -104 -33 -128 -33 -250 1 -154 13 -209 76 -330 48 -93 115 -174
196 -239 117 -93 133 -98 838 -286 160 -43 319 -85 355 -95 64 -18 51 -19
-875 -19 -1031 -1 -985 -3 -1114 60 -81 40 -184 142 -228 224 -68 130 -63
-129 -63 3125 0 3254 -5 2995 63 3125 40 75 144 180 217 220 124 66 75 64
1128 64 523 1 952 0 952 -1z"/>
<path d="M3586 6786 c-190 -244 -358 -454 -373 -466 -22 -17 -39 -21 -82 -19
l-55 3 -13 -42 c-7 -24 -8 -44 -3 -47 10 -6 407 -115 420 -115 9 0 31 81 24
92 -3 4 -11 8 -17 8 -7 0 -36 11 -64 25 -37 17 -53 30 -53 43 0 11 27 55 61
98 34 44 66 87 73 96 11 15 27 12 196 -32 285 -76 260 -66 261 -103 0 -18 4
-70 8 -117 12 -114 6 -124 -65 -116 -30 3 -60 7 -66 9 -10 2 -43 -82 -35 -89
2 -2 104 -30 228 -63 123 -33 232 -63 241 -66 13 -5 19 2 27 32 16 56 15 59
-35 78 -57 22 -67 44 -83 185 -29 271 -65 609 -86 815 -23 221 -14 200 -89
219 -36 9 -67 16 -70 16 -3 0 -161 -200 -350 -444z m348 -131 c8 -99 13 -182
11 -184 -2 -2 -85 18 -183 45 l-180 48 162 213 161 213 7 -77 c4 -43 14 -159
22 -258z"/>
<path d="M4616 5154 c-87 -48 -263 -137 -390 -198 -411 -198 -511 -257 -637
-374 -190 -176 -287 -416 -258 -642 11 -93 22 -127 67 -213 82 -158 212 -257
411 -311 85 -23 100 -24 175 -15 44 5 110 19 146 29 35 11 65 18 67 16 13 -12
-210 -314 -321 -435 -42 -46 -73 -87 -69 -92 4 -4 46 -13 93 -19 162 -22 361
-75 531 -141 56 -22 104 -37 107 -34 3 3 0 31 -7 63 -35 161 -71 453 -71 576
0 11 20 -3 63 -46 133 -133 232 -176 427 -185 88 -5 119 -2 185 16 150 42 268
127 350 255 87 136 129 336 107 506 -28 207 -116 375 -457 870 -58 85 -142
214 -185 285 -126 209 -118 207 -334 89z"/>
<path d="M1360 7092 l0 -49 54 -7 c30 -3 66 -10 80 -16 l26 -10 0 -388 c0
-416 -3 -449 -52 -523 -30 -44 -99 -79 -158 -79 -53 0 -138 38 -158 70 -11 18
-9 24 17 46 60 50 60 148 0 198 -24 20 -41 26 -79 26 -119 0 -176 -141 -109
-272 107 -210 484 -243 643 -56 81 95 96 191 96 632 0 379 -3 364 85 374 l46
5 -3 46 -3 46 -242 3 -243 2 0 -48z"/>
</g>
</svg>
